<svg xmlns="http://www.w3.org/2000/svg" viewBox="0 0 512 512" width="512" height="512"><rect width="512" height="512" rx="104" fill="#E9E0CF"/><path d="M122.0 196 L256.0 150 L390.0 196 L390.0 392 L122.0 392 Z" fill="none" stroke="#A9742E" stroke-width="11" stroke-linejoin="round"/><g transform="translate(175.805,340) scale(0.05762,-0.05762)"><path d="M172 1042Q172 1127 170.0 1190.5Q168 1254 164.0 1300.5Q160 1347 154.5 1378.0Q149 1409 143 1430V1434Q163 1433 185 1433Q204 1432 227.5 1432.0Q251 1432 276 1432Q312 1432 373.5 1439.0Q435 1446 532 1446Q622 1446 698.0 1422.5Q774 1399 829.5 1355.0Q885 1311 916.5 1246.5Q948 1182 948 1100Q948 1031 929.0 976.5Q910 922 875.5 881.5Q841 841 792.5 813.5Q744 786 686 770Q771 757 841.0 726.5Q911 696 961.5 650.0Q1012 604 1039.5 542.5Q1067 481 1067 406Q1067 195 928.0 89.5Q789 -16 512 -16Q482 -16 442.0 -13.5Q402 -11 360.5 -8.0Q319 -5 279.0 -2.5Q239 0 209 0H143V4Q149 25 154.5 56.0Q160 87 164.0 133.0Q168 179 170.0 242.5Q172 306 172 391ZM539 709Q471 709 425.0 704.0Q379 699 354 694V391Q354 274 358.0 198.0Q362 122 369 74Q407 69 445.0 65.0Q483 61 506 61Q693 61 779.5 144.5Q866 228 866 401Q866 469 845.5 525.5Q825 582 784.5 623.0Q744 664 682.5 686.5Q621 709 539 709ZM354 784Q382 781 404.0 780.5Q426 780 451 780Q519 780 575.0 799.5Q631 819 670.5 858.0Q710 897 732.0 955.5Q754 1014 754 1092Q754 1157 738.0 1210.0Q722 1263 690.5 1300.5Q659 1338 613.0 1358.0Q567 1378 508 1378Q470 1378 441.5 1375.0Q413 1372 393 1368Q370 1364 354 1358Z" fill="#1E2A26"/></g><g transform="translate(258.527,340) scale(0.05762,-0.05762)"><path d="M233 1434V1430Q231 1425 230.0 1415.0Q229 1405 229 1397Q229 1366 237.5 1328.5Q246 1291 270 1235L713 236L1141 1227Q1156 1264 1173.0 1308.0Q1190 1352 1190 1397Q1190 1409 1188.0 1417.5Q1186 1426 1184 1430V1434H1389V1430Q1370 1411 1343.0 1362.0Q1316 1313 1284 1241L711 -31H631L88 1192Q69 1235 48.5 1275.0Q28 1315 10.0 1347.5Q-8 1380 -22.0 1402.0Q-36 1424 -41 1430V1434Z" fill="#1E2A26"/></g></svg>